<?xml version="1.0" standalone="no"?>
<!DOCTYPE svg PUBLIC "-//W3C//DTD SVG 20010904//EN"
 "http://www.w3.org/TR/2001/REC-SVG-20010904/DTD/svg10.dtd">
<svg version="1.0" xmlns="http://www.w3.org/2000/svg"
 width="300.000000pt" height="300.000000pt" viewBox="0 0 300.000000 300.000000"
 preserveAspectRatio="xMidYMid meet">
<metadata>
Created by potrace 1.10, written by Peter Selinger 2001-2011
</metadata>
<g transform="translate(0.000000,300.000000) scale(0.100000,-0.100000)"
fill="#000000" stroke="none">
<path d="M301 2580 c-69 -25 -122 -60 -177 -117 -44 -45 -104 -155 -104 -189
0 -14 109 -85 418 -273 362 -220 841 -512 1010 -616 l53 -33 372 227 c205 125
467 285 582 356 116 70 281 171 367 224 113 68 158 101 158 115 0 10 -14 47
-31 83 -39 82 -121 163 -208 206 l-66 32 -1160 2 c-1131 2 -1161 2 -1214 -17z
m2419 -56 c36 -17 82 -45 102 -63 44 -39 96 -117 104 -158 l6 -30 -707 -431
c-388 -238 -714 -432 -724 -432 -9 0 -96 48 -192 106 -264 162 -541 331 -884
539 -171 103 -320 194 -332 202 -28 17 -29 42 -4 91 46 89 128 157 236 194 47
16 129 17 1190 15 l1140 -2 65 -31z"/>
<path d="M0 1957 c0 -21 56 -58 433 -287 237 -145 448 -273 467 -285 64 -42
475 -292 500 -305 42 -22 93 -29 139 -19 30 7 222 118 573 332 291 177 608
370 706 429 150 91 178 112 180 134 2 14 0 24 -5 21 -4 -2 -39 -24 -78 -48
-38 -23 -149 -90 -245 -149 -96 -59 -267 -163 -380 -232 -782 -477 -730 -448
-790 -448 -51 0 -65 6 -160 63 -140 85 -863 525 -970 591 -98 61 -339 209
-357 220 -9 5 -13 0 -13 -17z"/>
<path d="M12 769 c9 -128 110 -265 243 -330 l70 -34 1175 0 1175 0 70 34 c132
65 233 202 243 330 4 54 3 55 -13 34 -9 -13 -23 -46 -32 -75 -32 -108 -113
-202 -223 -256 l-55 -27 -1165 0 -1165 0 -57 27 c-63 29 -139 95 -173 148 -12
19 -34 67 -48 105 -39 102 -49 112 -45 44z"/>
</g>
</svg>
