<?xml version="1.0" standalone="no"?>
<!DOCTYPE svg PUBLIC "-//W3C//DTD SVG 20010904//EN"
 "http://www.w3.org/TR/2001/REC-SVG-20010904/DTD/svg10.dtd">
<svg version="1.0" xmlns="http://www.w3.org/2000/svg"
 width="300.000000pt" height="300.000000pt" viewBox="0 0 300.000000 300.000000"
 preserveAspectRatio="xMidYMid meet">
<metadata>
Created by potrace 1.10, written by Peter Selinger 2001-2011
</metadata>
<g transform="translate(0.000000,300.000000) scale(0.100000,-0.100000)"
fill="#000000" stroke="none">
<path d="M1280 2983 c-76 -11 -225 -49 -292 -74 -203 -74 -370 -181 -531 -338
-210 -204 -344 -436 -413 -716 -29 -116 -45 -338 -20 -275 7 20 19 69 26 110
71 438 293 790 646 1026 166 111 335 176 577 224 181 36 212 50 107 48 -41 0
-86 -2 -100 -5z"/>
<path d="M1576 2976 c17 -8 73 -22 125 -31 124 -21 258 -58 350 -95 471 -195
798 -604 889 -1112 12 -65 28 -135 36 -155 14 -36 14 -33 10 67 -10 202 -95
459 -214 644 -101 157 -285 349 -421 440 -228 152 -477 241 -701 251 -97 5
-103 4 -74 -9z"/>
<path d="M1513 2345 c-188 -51 -283 -190 -283 -415 0 -126 -1 -127 -70 -132
-97 -7 -100 -13 -100 -193 0 -199 -5 -193 151 -205 4 0 10 -185 14 -411 9
-471 2 -442 100 -454 31 -4 110 -5 177 -3 117 4 122 5 144 32 l24 27 0 403 0
403 101 5 c135 7 137 9 155 165 20 176 19 189 -13 210 -20 13 -55 19 -132 23
l-106 5 -3 78 c-3 75 -2 77 23 87 15 6 66 10 115 10 84 0 90 1 109 26 19 24
21 40 21 166 0 134 -1 140 -25 163 -24 25 -27 25 -187 24 -107 0 -181 -5 -215
-14z m387 -175 l0 -150 -110 0 c-104 0 -112 -1 -135 -25 -24 -23 -25 -31 -25
-133 l0 -109 142 5 c125 4 141 3 135 -11 -3 -8 -11 -79 -18 -156 l-13 -141
-123 0 -123 0 0 -437 0 -438 -182 3 -183 3 3 434 2 435 -87 0 -88 0 1 152 2
153 85 -2 85 -3 4 158 c3 147 5 161 31 217 34 73 77 119 141 152 68 35 110 41
294 42 l162 1 0 -150z"/>
<path d="M14 1350 c23 -479 357 -961 833 -1199 157 -78 345 -129 503 -136 97
-5 103 -4 75 9 -16 9 -38 15 -47 16 -43 1 -265 52 -348 80 -239 80 -484 246
-644 439 -172 206 -280 441 -331 720 -33 180 -47 204 -41 71z"/>
<path d="M2971 1418 c-6 -18 -17 -76 -26 -128 -93 -551 -454 -988 -966 -1168
-77 -27 -312 -81 -357 -82 -9 -1 -30 -7 -47 -16 -28 -13 -22 -14 75 -9 322 14
666 179 921 442 198 203 318 419 385 688 23 92 45 305 31 305 -3 0 -10 -15
-16 -32z"/>
</g>
</svg>
