<?xml version="1.0" standalone="no"?>
<!DOCTYPE svg PUBLIC "-//W3C//DTD SVG 20010904//EN"
 "http://www.w3.org/TR/2001/REC-SVG-20010904/DTD/svg10.dtd">
<svg version="1.0" xmlns="http://www.w3.org/2000/svg"
 width="300.000000pt" height="300.000000pt" viewBox="0 0 300.000000 300.000000"
 preserveAspectRatio="xMidYMid meet">
<metadata>
Created by potrace 1.10, written by Peter Selinger 2001-2011
</metadata>
<g transform="translate(0.000000,300.000000) scale(0.100000,-0.100000)"
fill="#000000" stroke="none">
<path d="M1255 2944 c-382 -71 -701 -267 -930 -572 -190 -253 -285 -544 -285
-872 0 -328 95 -619 285 -872 144 -191 312 -330 530 -438 150 -74 256 -109
416 -136 135 -22 414 -15 540 14 575 135 999 564 1125 1142 15 68 19 127 19
290 0 163 -4 222 -19 290 -127 579 -548 1006 -1125 1142 -117 27 -438 34 -556
12z m540 -52 c543 -117 954 -519 1092 -1067 26 -103 28 -123 28 -325 0 -200
-2 -222 -27 -320 -34 -134 -64 -215 -128 -338 -203 -397 -595 -677 -1045 -749
-145 -23 -393 -14 -535 20 -567 135 -985 579 -1085 1156 -20 110 -19 353 0
467 89 518 455 946 952 1112 79 27 175 49 288 66 74 11 372 -3 460 -22z"/>
<path d="M1070 2433 c-125 -15 -246 -64 -328 -131 -56 -46 -125 -151 -151
-232 -36 -111 -43 -221 -38 -636 5 -435 8 -461 75 -588 68 -130 185 -220 343
-263 57 -16 114 -18 529 -18 415 0 472 2 529 18 209 57 340 191 398 407 16 57
18 116 18 510 0 394 -2 453 -18 510 -45 166 -138 290 -268 355 -130 66 -146
68 -624 70 -236 2 -446 1 -465 -2z m955 -57 c102 -30 167 -67 231 -130 65 -66
103 -134 131 -236 16 -58 18 -115 18 -510 0 -486 -2 -505 -62 -630 -35 -71
-133 -169 -203 -202 -131 -62 -143 -63 -640 -63 -498 0 -511 1 -640 63 -71 34
-169 132 -203 202 -60 125 -62 144 -62 630 0 395 2 452 18 510 49 180 153 295
318 350 103 35 162 38 609 36 369 -3 433 -5 485 -20z"/>
<path d="M1074 2220 c-175 -27 -272 -118 -303 -285 -15 -79 -15 -791 0 -870
15 -82 46 -142 100 -197 37 -37 62 -51 120 -70 73 -23 82 -23 509 -23 427 0
436 0 509 23 119 38 195 129 220 267 15 79 15 791 0 870 -25 135 -100 228
-215 266 -67 22 -82 23 -479 25 -225 1 -433 -1 -461 -6z m771 -39 c194 -12
264 -49 322 -175 l28 -61 2 -420 c3 -444 1 -472 -45 -560 -46 -90 -125 -133
-271 -146 -124 -11 -638 -11 -762 0 -150 14 -225 55 -274 152 -42 81 -47 147
-43 574 4 449 5 454 80 540 55 63 120 87 253 95 159 10 559 10 710 1z"/>
<path d="M1922 2094 c-38 -19 -58 -46 -72 -94 -20 -71 51 -160 128 -160 73 0
132 62 132 139 0 35 -6 49 -37 81 -46 48 -99 60 -151 34z m117 -51 c66 -61 28
-163 -61 -163 -71 0 -114 68 -83 133 29 61 95 75 144 30z"/>
<path d="M1394 2005 c-92 -20 -171 -62 -246 -134 -209 -196 -219 -515 -22
-721 114 -119 213 -163 374 -163 90 -1 115 3 173 26 349 136 455 568 203 835
-127 136 -307 195 -482 157z m264 -56 c120 -40 239 -153 283 -269 102 -270
-28 -545 -301 -636 -77 -26 -214 -23 -294 5 -143 51 -246 154 -298 300 -30 81
-29 214 1 304 55 164 212 294 386 321 55 8 158 -3 223 -25z"/>
<path d="M1435 1801 c-63 -17 -106 -41 -150 -85 -64 -65 -88 -123 -88 -216 0
-93 24 -151 88 -215 64 -64 122 -88 215 -88 93 0 151 24 215 88 64 64 88 122
88 215 0 55 -5 88 -21 122 -27 61 -100 133 -159 159 -52 22 -143 32 -188 20z
m181 -65 c59 -27 116 -90 132 -145 30 -99 2 -221 -64 -283 -131 -123 -357 -76
-430 89 -21 49 -22 156 -2 204 59 136 228 199 364 135z"/>
</g>
</svg>
