<?xml version="1.0" standalone="no"?>
<!DOCTYPE svg PUBLIC "-//W3C//DTD SVG 20010904//EN"
 "http://www.w3.org/TR/2001/REC-SVG-20010904/DTD/svg10.dtd">
<svg version="1.0" xmlns="http://www.w3.org/2000/svg"
 width="300.000000pt" height="300.000000pt" viewBox="0 0 300.000000 300.000000"
 preserveAspectRatio="xMidYMid meet">
<metadata>
Created by potrace 1.10, written by Peter Selinger 2001-2011
</metadata>
<g transform="translate(0.000000,300.000000) scale(0.100000,-0.100000)"
fill="#000000" stroke="none">
<path d="M1375 2740 c-226 -36 -401 -127 -570 -295 -149 -149 -224 -279 -276
-481 -19 -73 -23 -115 -23 -234 0 -129 3 -155 28 -235 91 -300 362 -688 761
-1092 204 -206 206 -206 415 6 398 403 665 787 756 1086 25 80 28 106 28 235
0 119 -4 161 -23 234 -51 196 -127 331 -266 472 -149 152 -289 233 -485 283
-98 25 -258 34 -345 21z m220 -41 c355 -43 663 -280 793 -610 50 -127 67 -218
66 -369 -1 -119 -4 -145 -28 -220 -77 -237 -261 -528 -525 -830 -113 -130
-343 -358 -373 -371 -46 -19 -75 1 -230 159 -423 430 -683 824 -744 1123 -23
115 -15 280 21 404 119 415 474 697 910 724 11 0 61 -4 110 -10z"/>
<path d="M1420 2157 c-151 -34 -266 -138 -315 -286 -27 -82 -18 -218 20 -294
158 -319 587 -324 742 -9 37 73 38 80 38 181 0 98 -2 111 -31 171 -17 36 -46
83 -64 104 -95 108 -256 163 -390 133z m205 -54 c92 -32 183 -117 221 -209 92
-221 -51 -475 -289 -514 -156 -25 -322 61 -392 205 -146 298 145 627 460 518z"/>
</g>
</svg>
