<?xml version="1.0" standalone="no"?>
<!DOCTYPE svg PUBLIC "-//W3C//DTD SVG 20010904//EN"
 "http://www.w3.org/TR/2001/REC-SVG-20010904/DTD/svg10.dtd">
<svg version="1.0" xmlns="http://www.w3.org/2000/svg"
 width="300.000000pt" height="300.000000pt" viewBox="0 0 300.000000 300.000000"
 preserveAspectRatio="xMidYMid meet">
<metadata>
Created by potrace 1.10, written by Peter Selinger 2001-2011
</metadata>
<g transform="translate(0.000000,300.000000) scale(0.100000,-0.100000)"
fill="#000000" stroke="none">
<path d="M662 2885 c-126 -59 -464 -445 -547 -627 -24 -54 -25 -55 -10 -144
138 -845 1164 -1871 2009 -2009 89 -15 90 -14 144 10 182 84 561 414 625 545
22 46 25 61 18 92 -14 59 -46 102 -113 149 -284 200 -555 347 -654 356 -54 4
-63 2 -104 -26 -25 -17 -79 -71 -120 -121 -89 -106 -82 -105 -235 -31 -262
128 -482 351 -605 614 -64 136 -66 129 45 221 117 96 150 146 143 214 -11 101
-98 270 -284 549 -93 140 -122 177 -157 196 -64 37 -96 39 -155 12z m146 -54
c56 -39 281 -391 362 -565 74 -157 66 -195 -69 -313 -47 -41 -94 -88 -105
-104 -18 -29 -18 -31 4 -92 110 -304 369 -580 680 -726 152 -71 153 -71 269
64 114 132 146 143 271 96 134 -50 568 -322 611 -382 29 -41 35 -98 15 -137
-60 -117 -379 -396 -582 -509 -41 -23 -53 -25 -113 -20 -208 17 -513 143 -785
324 -457 304 -867 764 -1077 1208 -85 180 -150 398 -151 501 0 48 25 101 90
194 132 189 322 399 418 460 40 26 57 31 91 27 22 -2 55 -14 71 -26z"/>
</g>
</svg>
