<?xml version="1.0" standalone="no"?>
<!DOCTYPE svg PUBLIC "-//W3C//DTD SVG 20010904//EN"
 "http://www.w3.org/TR/2001/REC-SVG-20010904/DTD/svg10.dtd">
<svg version="1.0" xmlns="http://www.w3.org/2000/svg"
 width="300.000000pt" height="300.000000pt" viewBox="0 0 300.000000 300.000000"
 preserveAspectRatio="xMidYMid meet">
<metadata>
Created by potrace 1.10, written by Peter Selinger 2001-2011
</metadata>
<g transform="translate(0.000000,300.000000) scale(0.100000,-0.100000)"
fill="#000000" stroke="none">
<path d="M1280 2983 c-76 -11 -225 -49 -292 -74 -203 -74 -370 -181 -531 -338
-210 -204 -344 -436 -413 -716 -29 -116 -45 -338 -20 -275 7 20 19 69 26 110
71 438 293 790 646 1026 166 111 335 176 577 224 181 36 212 50 107 48 -41 0
-86 -2 -100 -5z"/>
<path d="M1576 2976 c17 -8 73 -22 125 -31 124 -21 258 -58 350 -95 471 -195
798 -604 889 -1112 12 -65 28 -135 36 -155 14 -36 14 -33 10 67 -10 202 -95
459 -214 644 -101 157 -285 349 -421 440 -228 152 -477 241 -701 251 -97 5
-103 4 -74 -9z"/>
<path d="M1708 2206 c-145 -52 -252 -184 -265 -327 -4 -40 -11 -63 -21 -66
-23 -9 -155 23 -247 61 -106 43 -198 104 -303 200 -45 42 -87 76 -93 76 -22 0
-58 -50 -73 -101 -23 -77 -20 -149 10 -235 l26 -75 -27 -21 c-25 -20 -27 -26
-22 -74 7 -68 47 -151 103 -213 39 -44 43 -52 33 -70 -31 -48 54 -174 160
-236 28 -16 51 -34 51 -38 0 -25 -183 -77 -277 -77 -157 0 -157 -67 2 -141
311 -146 700 -119 982 68 132 87 278 252 350 398 63 125 113 318 113 434 0 43
4 50 70 119 38 40 73 84 76 98 7 29 -19 64 -47 64 -17 0 -17 2 -1 45 31 85
-13 101 -141 51 l-69 -26 -56 35 c-31 19 -77 41 -101 50 -53 18 -182 19 -233
1z m267 -58 c28 -14 59 -35 69 -47 11 -12 29 -21 41 -21 29 0 130 35 172 60
19 11 36 20 39 20 7 0 -43 -91 -64 -115 -9 -11 -32 -32 -50 -47 -32 -26 -32
-28 -10 -28 13 0 55 11 93 24 39 14 72 22 74 20 3 -3 -34 -43 -82 -90 l-87
-86 0 -58 c0 -77 -24 -209 -53 -295 -109 -320 -351 -550 -668 -637 -73 -20
-106 -23 -259 -22 -147 0 -187 4 -253 22 -76 21 -277 109 -277 121 0 3 36 5
80 3 108 -5 211 19 321 75 109 56 127 73 76 73 -61 0 -143 37 -196 89 -43 42
-91 115 -91 138 0 4 34 7 75 5 49 -2 75 0 75 7 0 6 -9 11 -20 11 -60 0 -174
91 -215 171 -22 43 -48 149 -39 158 2 3 20 -3 39 -12 20 -9 54 -20 77 -23 l41
-7 -46 43 c-93 85 -128 215 -92 345 9 36 20 67 24 69 4 3 38 -27 76 -66 156
-157 362 -257 586 -283 l55 -7 -4 64 c-5 78 7 126 50 198 36 59 104 116 170
143 67 26 208 19 273 -15z"/>
<path d="M14 1350 c23 -479 357 -961 833 -1199 157 -78 345 -129 503 -136 97
-5 103 -4 75 9 -16 9 -38 15 -47 16 -43 1 -265 52 -348 80 -239 80 -484 246
-644 439 -172 206 -280 441 -331 720 -33 180 -47 204 -41 71z"/>
<path d="M2971 1418 c-6 -18 -17 -76 -26 -128 -93 -551 -454 -988 -966 -1168
-77 -27 -312 -81 -357 -82 -9 -1 -30 -7 -47 -16 -28 -13 -22 -14 75 -9 322 14
666 179 921 442 198 203 318 419 385 688 23 92 45 305 31 305 -3 0 -10 -15
-16 -32z"/>
</g>
</svg>
